<svg width="34" height="32" viewBox="0 0 34 32" fill="none" xmlns="http://www.w3.org/2000/svg">
<path d="M17.776 24V6.96H21.424V23.016L19.408 20.928H29.272V24H17.776Z" fill="#01FF95"/>
<path d="M17.776 24V6.96H21.424V23.016L19.408 20.928H29.272V24H17.776Z" fill="#00FF95" fill-opacity="0.2"/>
<path d="M17.776 24V6.96H21.424V23.016L19.408 20.928H29.272V24H17.776Z" fill="#00FF95" fill-opacity="0.5"/>
<path d="M1.776 24V6.96H8.4C10.512 6.96 12.128 7.336 13.248 8.088C14.368 8.824 14.928 9.992 14.928 11.592C14.928 12.296 14.784 12.912 14.496 13.44C14.208 13.952 13.784 14.36 13.224 14.664C12.68 14.968 12.016 15.152 11.232 15.216V15.168C12.656 15.264 13.744 15.68 14.496 16.416C15.264 17.136 15.648 18.096 15.648 19.296C15.648 20.88 15.088 22.064 13.968 22.848C12.864 23.616 11.28 24 9.216 24H1.776ZM5.424 21.024H9.048C9.928 21.024 10.632 20.848 11.16 20.496C11.704 20.128 11.976 19.584 11.976 18.864C11.976 18.144 11.704 17.6 11.16 17.232C10.632 16.848 9.928 16.656 9.048 16.656H5.424V21.024ZM5.424 14.016H8.304C9.2 14.016 9.912 13.84 10.44 13.488C10.984 13.136 11.256 12.632 11.256 11.976C11.256 11.272 10.992 10.76 10.464 10.44C9.952 10.104 9.232 9.936 8.304 9.936H5.424V14.016Z" fill="#E9EDED"/>
</svg>
